<svg width="239" height="47" viewBox="0 0 239 47" fill="none" xmlns="http://www.w3.org/2000/svg">
<g id="Frame" clip-path="url(#clip0_3_18)">
<path id="Vector" d="M46.6665 0.772736H0.666504V46.7727H46.6665V0.772736Z" fill="black"/>
<path id="Vector_2" d="M14.3472 37.1894V12.0985H24.2464C26.1412 12.0985 27.7583 12.4374 29.0979 13.1153C30.4455 13.7851 31.4705 14.7366 32.173 15.9699C32.8835 17.1951 33.2388 18.6367 33.2388 20.2947C33.2388 21.9609 32.8795 23.3944 32.1607 24.595C31.442 25.7873 30.4006 26.7022 29.0365 27.3393C27.6809 27.9764 26.0391 28.2949 24.1115 28.2949H17.4835V24.0313H23.254C24.2667 24.0313 25.1079 23.8925 25.7778 23.6148C26.4475 23.3371 26.9456 22.9206 27.2724 22.3651C27.6073 21.8099 27.7748 21.1197 27.7748 20.2947C27.7748 19.4616 27.6073 18.7592 27.2724 18.1874C26.9456 17.6157 26.4435 17.1828 25.7656 16.8888C25.0957 16.5866 24.2504 16.4355 23.2294 16.4355H19.652V37.1894H14.3472ZM27.8973 25.771L34.1331 37.1894H28.277L22.1758 25.771H27.8973Z" fill="white"/>
<path id="Vector_3" d="M94.583 0.772736H48.583V46.7727H94.583V0.772736Z" fill="black"/>
<path id="Vector_4" d="M64.6719 37.1894H58.9873L67.6489 12.0985H74.4853L83.1348 37.1894H77.4502L71.1652 17.8321H70.9692L64.6719 37.1894ZM64.3166 27.327H77.7442V31.4679H64.3166V27.327Z" fill="white"/>
<path id="Vector_5" d="M142.5 0.772736H96.5V46.7727H142.5V0.772736Z" fill="black"/>
<path id="Vector_6" d="M124.901 20.2089C124.73 19.6127 124.489 19.0859 124.178 18.6285C123.868 18.1629 123.488 17.7709 123.039 17.4523C122.598 17.1256 122.092 16.8765 121.52 16.705C120.956 16.5335 120.331 16.4477 119.645 16.4477C118.363 16.4477 117.236 16.7663 116.264 17.4034C115.3 18.0404 114.549 18.9674 114.01 20.1843C113.471 21.3932 113.201 22.8715 113.201 24.6195C113.201 26.3673 113.467 27.8539 113.997 29.079C114.528 30.3041 115.28 31.2393 116.252 31.8844C117.224 32.5215 118.371 32.8401 119.694 32.8401C120.895 32.8401 121.92 32.6277 122.769 32.203C123.627 31.7702 124.28 31.1617 124.73 30.3776C125.187 29.5934 125.416 28.6665 125.416 27.5965L126.494 27.7557H120.025V23.7618H130.525V26.9228C130.525 29.1279 130.059 31.0229 129.128 32.6074C128.197 34.1837 126.914 35.4008 125.281 36.2583C123.648 37.1077 121.777 37.5325 119.67 37.5325C117.318 37.5325 115.251 37.0138 113.471 35.9765C111.69 34.931 110.302 33.4486 109.305 31.5293C108.317 29.6017 107.823 27.3147 107.823 24.6684C107.823 22.6346 108.117 20.8214 108.705 19.2288C109.301 17.6279 110.134 16.2721 111.204 15.1613C112.274 14.0505 113.52 13.2052 114.941 12.6253C116.362 12.0454 117.902 11.7554 119.559 11.7554C120.981 11.7554 122.304 11.9637 123.529 12.3803C124.754 12.7886 125.84 13.3685 126.788 14.12C127.743 14.8714 128.524 15.7657 129.128 16.803C129.732 17.8321 130.12 18.9674 130.292 20.2089H124.901Z" fill="white"/>
<path id="Vector_7" d="M190.417 0.772736H144.417V46.7727H190.417V0.772736Z" fill="black"/>
<path id="Vector_8" d="M160.505 37.1894H154.821L163.482 12.0985H170.319L178.968 37.1894H173.284L166.999 17.8321H166.803L160.505 37.1894ZM160.15 27.327H173.578V31.4679H160.15V27.327Z" fill="white"/>
<path id="Vector_9" d="M238.333 0.772736H192.333V46.7727H238.333V0.772736Z" fill="black"/>
<path id="Vector_10" d="M201.223 12.0985H207.764L214.674 28.9563H214.969L221.879 12.0985H228.42V37.1894H223.274V20.8582H223.067L216.573 37.0669H213.07L206.576 20.7969H206.367V37.1894H201.223V12.0985Z" fill="white"/>
</g>
<defs>
<clipPath id="clip0_3_18">
<rect width="237.667" height="46" fill="white" transform="translate(0.666504 0.772736)"/>
</clipPath>
</defs>
</svg>
